<!DOCTYPE svg PUBLIC "-//W3C//DTD SVG 20010904//EN" "http://www.w3.org/TR/2001/REC-SVG-20010904/DTD/svg10.dtd">
<svg version="1.0" xmlns="http://www.w3.org/2000/svg" width="512px" height="512px" viewBox="0 0 5120 5120" preserveAspectRatio="xMidYMid meet">
<g id="layer101" fill="#131c23" stroke="none">
<path d="M2621 4733 c-112 -15 -359 -62 -411 -78 -10 -3 -27 -8 -37 -10 -46 -9 -368 -116 -408 -135 -11 -5 -49 -21 -85 -36 -248 -101 -506 -266 -691 -444 -43 -41 -172 -204 -201 -255 -105 -180 -154 -325 -184 -545 -7 -52 7 -31 -244 -365 -107 -143 -203 -272 -213 -287 -22 -35 -22 -61 2 -82 24 -22 30 -20 226 59 11 5 22 9 25 10 3 1 14 5 25 10 11 4 54 21 95 37 41 16 90 36 108 44 35 17 62 13 62 -8 0 -21 72 -158 122 -233 46 -70 215 -245 237 -245 6 0 11 -6 11 -13 0 -8 8 -21 18 -31 18 -15 23 -14 93 13 41 16 103 41 139 55 36 14 79 30 95 37 17 7 32 13 35 14 3 1 14 5 25 10 11 4 65 25 121 47 l101 39 74 -36 c40 -19 79 -35 86 -35 7 0 13 -11 13 -25 0 -43 48 -210 76 -264 8 -14 14 -30 14 -35 0 -18 158 -328 221 -432 86 -143 194 -305 259 -388 27 -36 50 -68 50 -71 0 -4 6 -12 13 -19 7 -8 29 -33 48 -56 123 -153 228 -264 351 -370 140 -121 187 -154 290 -207 63 -32 93 -43 158 -61 32 -9 157 -9 192 0 56 13 135 65 211 138 75 71 167 181 167 199 0 4 9 16 20 26 11 10 20 22 20 26 0 8 58 99 87 138 10 13 25 33 33 46 8 12 31 42 50 67 19 25 68 87 107 139 40 52 103 133 140 180 38 48 97 124 132 170 36 46 77 100 93 119 102 128 158 201 158 208 0 4 13 21 28 37 15 17 36 43 47 59 11 16 29 41 40 56 51 71 165 240 165 245 0 3 11 22 23 43 33 51 59 136 53 169 -24 139 -70 217 -215 365 l-97 99 43 19 c34 15 48 29 63 62 23 50 23 60 10 109 -11 38 -62 96 -97 110 -16 6 -21 14 -18 31 3 13 7 50 10 83 3 33 8 69 10 80 2 11 7 56 11 100 4 44 8 87 10 95 1 8 3 18 3 22 1 3 18 12 39 18 68 23 91 58 51 82 -11 7 -44 47 -71 88 -71 104 -106 146 -238 280 -109 111 -231 215 -310 265 -19 12 -41 30 -49 39 -7 9 -17 16 -22 16 -5 0 -28 12 -52 27 -104 68 -377 200 -427 208 -3 0 -30 10 -61 22 -86 33 -313 86 -414 98 -27 3 -81 9 -120 14 -107 13 -427 9 -544 -6z"/>
</g>
<g id="layer102" fill="#5a2324" stroke="none">
<path d="M2621 4733 c-112 -15 -359 -62 -411 -78 -10 -3 -27 -8 -37 -10 -46 -9 -368 -116 -408 -135 -11 -5 -49 -21 -85 -36 -248 -101 -506 -266 -691 -444 -43 -41 -172 -204 -201 -255 -105 -180 -158 -339 -183 -545 -7 -53 -14 -60 99 93 73 98 84 108 135 127 31 12 64 26 73 31 10 5 23 9 29 9 5 0 35 11 65 25 30 14 59 25 64 25 6 0 18 4 28 9 9 5 49 22 87 36 39 15 79 31 90 35 24 10 152 59 180 70 24 9 152 59 180 70 11 4 40 15 65 25 25 10 56 22 70 28 14 5 34 13 45 17 32 12 108 42 135 53 14 5 34 13 45 17 20 8 91 35 133 51 12 5 32 13 45 18 28 11 105 41 132 51 39 15 160 62 183 71 12 5 32 13 45 18 12 5 38 14 57 21 19 7 44 16 55 20 11 4 63 25 115 45 134 53 157 62 237 94 68 28 92 26 128 -7 17 -16 113 -102 215 -191 102 -90 217 -191 255 -226 39 -34 86 -75 105 -91 19 -16 48 -42 65 -57 16 -15 67 -60 113 -100 l83 -72 -3 -50 -3 -50 -60 -21 c-33 -11 -73 -26 -88 -32 -16 -7 -34 -12 -40 -12 -7 -1 -30 -9 -52 -20 -22 -11 -47 -20 -55 -20 -8 0 -33 -9 -55 -20 -22 -11 -47 -20 -55 -20 -8 0 -33 -9 -55 -20 -22 -11 -46 -19 -53 -20 -8 0 -28 -7 -45 -14 -18 -8 -59 -24 -92 -35 -33 -12 -91 -32 -130 -47 -38 -14 -88 -32 -110 -39 -22 -8 -71 -26 -110 -40 -38 -15 -83 -31 -100 -37 -16 -5 -43 -16 -60 -23 -16 -7 -46 -18 -65 -24 -19 -5 -66 -22 -105 -36 -84 -31 -165 -61 -220 -80 -45 -16 -147 -54 -217 -81 -45 -17 -48 -17 -88 1 -22 10 -37 21 -33 25 4 4 280 105 613 225 1051 380 1212 440 1213 450 1 8 -573 523 -765 686 l-47 40 -103 -147 c-165 -235 -416 -574 -474 -640 -53 -61 -54 -62 -241 -137 -174 -71 -670 -267 -841 -332 l-73 -28 41 -42 c34 -35 40 -46 34 -69 -3 -14 -9 -28 -13 -30 -4 -3 -34 20 -66 50 -71 64 -56 65 -250 -12 -142 -57 -167 -67 -207 -83 -198 -78 -209 -84 -202 -105 12 -43 80 -173 125 -241 48 -70 217 -245 238 -245 6 0 11 -6 11 -13 0 -8 8 -21 18 -31 18 -15 23 -14 93 13 41 16 103 41 139 55 36 14 79 30 95 37 17 7 32 13 35 14 3 1 14 5 25 10 11 4 65 25 121 47 l101 39 74 -36 c40 -19 79 -35 86 -35 7 0 13 -11 13 -25 0 -43 48 -210 76 -264 8 -14 14 -30 14 -35 0 -18 158 -328 221 -432 86 -143 194 -305 259 -388 27 -36 50 -68 50 -71 0 -4 6 -12 13 -19 7 -8 29 -33 48 -56 123 -153 228 -264 351 -370 140 -121 187 -154 290 -207 63 -32 93 -43 158 -61 32 -9 157 -9 192 0 56 13 135 65 211 138 75 71 167 181 167 199 0 4 9 16 20 26 11 10 20 22 20 26 0 8 58 99 87 138 10 13 25 33 33 46 8 12 31 42 50 67 19 25 68 87 107 139 40 52 103 133 140 180 38 48 97 124 132 170 36 46 77 100 93 119 102 128 158 201 158 208 0 4 13 21 28 37 15 17 36 43 47 59 11 16 29 41 40 56 51 71 165 240 165 245 0 3 11 22 23 43 33 51 59 136 53 169 -24 139 -70 217 -215 365 l-97 99 43 19 c34 15 48 29 63 62 23 50 23 60 10 109 -11 38 -62 96 -97 110 -16 6 -21 14 -18 31 3 13 7 50 10 83 3 33 8 69 10 80 2 11 7 56 11 100 4 44 8 87 10 95 1 8 3 18 3 22 1 3 18 12 39 18 68 23 91 58 51 82 -11 7 -44 47 -71 88 -71 104 -106 146 -238 280 -109 111 -231 215 -310 265 -19 12 -41 30 -49 39 -7 9 -17 16 -22 16 -5 0 -28 12 -52 27 -104 68 -377 200 -427 208 -3 0 -30 10 -61 22 -86 33 -313 86 -414 98 -27 3 -81 9 -120 14 -107 13 -427 9 -544 -6z m1239 -2399 c0 -2 -18 -13 -40 -24 -43 -22 -94 -88 -88 -116 1 -9 13 -23 25 -31 21 -14 25 -12 67 31 32 34 52 46 73 46 39 0 69 -23 83 -65 18 -56 67 -69 90 -25 11 21 -3 71 -32 113 -19 27 -19 27 0 27 29 0 55 -63 55 -130 0 -134 -123 -243 -239 -212 -62 17 -91 38 -121 90 -53 90 -26 221 59 282 22 16 46 26 54 23 8 -3 14 -7 14 -9z m-401 -1618 c17 -20 3 -163 -17 -171 -29 -11 -42 15 -42 82 0 89 26 129 59 89z m-198 -112 c43 -58 47 -87 14 -92 -15 -2 -32 13 -63 57 -47 67 -49 76 -25 90 23 12 26 10 74 -55z"/>
</g>
<g id="layer103" fill="#293750" stroke="none">
<path d="M2621 4733 c-112 -15 -359 -62 -411 -78 -10 -3 -27 -8 -37 -10 -46 -9 -368 -116 -408 -135 -11 -5 -49 -21 -85 -36 -248 -101 -506 -266 -691 -444 -43 -41 -172 -204 -201 -255 -105 -180 -158 -339 -183 -545 -7 -53 -14 -60 99 93 73 97 84 108 135 128 31 12 71 28 90 36 18 8 39 16 45 17 6 1 28 10 50 19 21 9 44 17 50 17 7 0 16 4 22 8 5 5 43 21 84 36 41 15 89 34 105 41 17 6 57 22 90 35 33 12 74 28 90 35 17 6 57 22 90 35 33 12 74 28 90 35 17 6 46 18 65 25 38 13 57 21 110 42 19 8 51 21 70 28 38 13 57 21 110 42 19 8 51 21 70 28 38 13 57 21 110 42 19 8 51 21 70 28 38 13 57 21 110 42 19 8 51 21 70 28 19 7 49 18 65 25 17 8 53 21 80 30 28 9 59 20 70 24 60 26 96 40 150 61 66 24 93 35 128 50 66 29 130 50 150 50 12 0 36 -13 52 -28 17 -16 113 -102 215 -191 102 -90 217 -191 255 -226 39 -34 86 -75 105 -91 19 -16 48 -42 65 -57 16 -15 67 -60 112 -100 82 -71 83 -72 83 -120 0 -47 -1 -48 -46 -67 -25 -11 -51 -20 -58 -20 -7 0 -31 -9 -54 -20 -22 -11 -47 -20 -55 -20 -7 0 -32 -9 -55 -20 -22 -11 -47 -20 -55 -20 -7 0 -32 -9 -55 -20 -22 -11 -47 -20 -55 -20 -7 0 -32 -9 -55 -20 -22 -11 -48 -20 -57 -20 -8 0 -23 -4 -33 -10 -9 -5 -44 -19 -77 -30 -33 -11 -91 -31 -130 -46 -38 -14 -88 -32 -110 -39 -22 -8 -71 -26 -110 -40 -38 -15 -83 -31 -100 -37 -16 -5 -43 -16 -60 -23 -16 -7 -46 -18 -65 -24 -19 -5 -66 -22 -105 -36 -84 -31 -165 -61 -220 -80 -45 -16 -147 -54 -217 -81 -45 -17 -48 -17 -88 1 -22 10 -37 21 -33 25 4 4 280 105 613 225 1051 380 1212 440 1213 450 1 8 -573 523 -765 686 l-47 40 -103 -147 c-165 -235 -416 -574 -474 -640 -53 -61 -54 -62 -241 -137 -174 -71 -670 -267 -841 -332 l-73 -28 41 -42 c34 -35 40 -46 34 -69 -3 -14 -9 -28 -13 -30 -4 -3 -34 20 -66 50 -71 64 -56 65 -250 -12 -142 -57 -167 -67 -207 -83 -198 -78 -209 -84 -202 -105 12 -42 80 -172 122 -236 73 -110 253 -281 264 -251 2 5 113 52 248 105 135 53 257 102 272 110 24 13 28 12 44 -5 20 -22 188 -109 210 -109 8 0 14 -10 14 -25 0 -43 48 -210 76 -264 8 -14 14 -30 14 -35 0 -18 158 -328 221 -432 86 -143 194 -305 259 -388 27 -36 50 -68 50 -71 0 -4 6 -12 13 -19 7 -8 29 -33 48 -56 123 -153 228 -264 351 -370 140 -121 187 -154 290 -207 63 -32 93 -43 158 -61 32 -9 157 -9 192 0 56 13 135 65 211 138 75 71 167 181 167 199 0 4 9 16 20 26 11 10 20 22 20 26 0 8 58 99 87 138 10 13 25 33 33 46 8 12 31 42 50 67 19 25 68 87 107 139 40 52 103 133 140 180 38 48 97 124 132 170 36 46 77 100 93 119 102 128 158 201 158 208 0 4 13 21 28 37 15 17 36 43 47 59 11 16 29 41 40 56 51 71 165 240 165 245 0 3 11 22 23 43 33 51 59 136 53 169 -24 141 -71 220 -221 370 -73 74 -108 103 -126 103 -13 0 -58 14 -99 31 -68 27 -232 81 -426 138 l-70 21 4 34 4 33 186 -54 c103 -30 240 -75 305 -99 128 -49 148 -50 172 -4 41 80 7 111 -200 178 -88 29 -221 70 -295 91 l-135 38 0 47 c0 30 -5 50 -15 56 -18 11 -49 -3 380 165 179 70 328 131 332 134 7 6 -72 127 -132 201 -102 127 -348 354 -460 425 -19 12 -41 30 -49 39 -7 9 -17 16 -22 16 -5 0 -28 12 -52 27 -104 68 -377 200 -427 208 -3 0 -30 10 -61 22 -86 33 -313 86 -414 98 -27 3 -81 9 -120 14 -107 13 -427 9 -544 -6z m729 -1695 l-19 -43 -398 -158 c-219 -86 -416 -159 -438 -162 -48 -5 -130 5 -118 15 4 4 44 21 88 38 129 49 775 303 835 328 30 12 58 23 62 23 4 1 -1 -18 -12 -41z m510 -704 c0 -2 -18 -13 -40 -24 -43 -22 -94 -88 -88 -116 1 -9 13 -23 25 -31 21 -14 25 -12 67 31 32 34 52 46 73 46 39 0 69 -23 83 -65 18 -56 67 -69 90 -25 11 21 -3 71 -32 113 -19 27 -19 27 0 27 29 0 55 -63 55 -130 0 -134 -123 -243 -239 -212 -62 17 -91 38 -121 90 -53 90 -26 221 59 282 22 16 46 26 54 23 8 -3 14 -7 14 -9z m-834 -564 c18 -12 55 -47 81 -78 78 -92 77 -90 63 -107 -20 -25 -32 -18 -89 50 -30 35 -67 73 -82 84 l-28 21 -20 -22 c-20 -21 -38 -68 -61 -155 -8 -33 -16 -43 -31 -43 -29 0 -32 19 -15 94 36 155 97 208 182 156z m433 -1054 c17 -20 3 -163 -17 -171 -29 -11 -42 15 -42 82 0 89 26 129 59 89z m-198 -112 c43 -58 47 -87 14 -92 -15 -2 -32 13 -63 57 -47 67 -49 76 -25 90 23 12 26 10 74 -55z"/>
<path d="M3899 2071 c-67 -67 -5 -140 81 -96 44 23 57 86 22 113 -28 21 -71 14 -103 -17z"/>
<path d="M2830 4149 c-69 -28 -246 -97 -395 -154 -736 -283 -1609 -625 -1614 -633 -3 -4 -136 -180 -294 -391 -159 -210 -287 -385 -284 -387 4 -4 574 219 1682 658 564 223 483 166 738 516 260 358 318 442 304 441 -6 0 -68 -23 -137 -50z"/>
<path d="M4800 3577 c-24 -10 -94 -40 -135 -57 -11 -5 -87 -34 -169 -65 -81 -31 -158 -61 -170 -67 -46 -24 -56 -28 -71 -28 -43 0 -2 -19 108 -49 67 -19 189 -56 271 -83 82 -26 152 -45 155 -43 6 7 8 21 16 95 3 30 8 69 10 85 2 17 7 59 10 95 4 36 8 80 11 98 4 35 2 36 -36 19z"/>
</g>
<g id="layer104" fill="#024676" stroke="none">
<path d="M2621 4733 c-112 -15 -359 -62 -411 -78 -10 -3 -27 -8 -37 -10 -46 -9 -368 -116 -408 -135 -11 -5 -49 -21 -85 -36 -248 -101 -506 -266 -691 -444 -43 -41 -172 -204 -201 -255 -105 -180 -158 -339 -183 -545 -7 -53 -14 -60 99 93 75 99 84 108 140 131 34 13 435 169 891 346 457 177 946 367 1088 422 l257 100 38 -33 c20 -18 218 -192 440 -387 l402 -355 0 -48 c0 -36 -5 -51 -17 -57 -10 -5 -144 -55 -298 -110 -471 -170 -1407 -509 -1460 -530 l-50 -19 -39 23 -39 22 34 14 c19 8 431 158 916 334 486 175 883 324 883 330 0 6 -107 105 -237 220 -131 115 -313 275 -404 356 l-167 147 -58 -84 c-55 -79 -132 -187 -306 -430 -40 -55 -74 -102 -77 -105 -4 -3 -26 -32 -50 -65 -87 -118 -145 -170 -224 -200 -40 -16 -94 -38 -122 -50 -27 -12 -77 -32 -110 -44 -33 -13 -102 -41 -153 -62 -51 -22 -96 -39 -99 -39 -4 0 -59 -21 -122 -46 -223 -89 -257 -102 -328 -130 -40 -15 -73 -30 -73 -34 0 -4 17 -23 38 -42 37 -33 38 -35 24 -67 -15 -38 -12 -39 -99 42 -49 47 -4 58 -376 -90 -305 -120 -281 -95 -219 -223 55 -112 114 -196 205 -288 81 -82 132 -120 139 -103 2 5 113 52 248 105 135 53 257 102 272 110 26 14 30 13 72 -20 47 -35 161 -94 184 -94 6 0 12 -11 12 -25 0 -43 48 -210 76 -264 8 -14 14 -30 14 -35 0 -18 158 -328 221 -432 86 -143 194 -305 259 -388 27 -36 50 -68 50 -71 0 -4 6 -12 13 -19 7 -8 29 -33 48 -56 123 -153 228 -264 351 -370 140 -121 187 -154 290 -207 63 -32 93 -43 158 -61 32 -9 157 -9 192 0 56 13 135 65 211 138 75 71 167 181 167 199 0 4 9 16 20 26 11 10 20 22 20 26 0 8 58 99 87 138 10 13 25 33 33 46 8 12 31 42 50 67 19 25 68 87 107 139 40 52 103 133 140 180 38 48 97 124 132 170 36 46 77 100 93 119 102 128 158 201 158 208 0 4 13 21 28 37 15 17 36 43 47 59 11 16 29 41 40 56 51 71 165 240 165 245 0 3 11 22 23 43 33 51 59 136 53 169 -23 136 -67 211 -207 357 -73 76 -100 98 -133 107 -22 5 -77 25 -121 44 -44 19 -169 61 -279 94 -109 33 -200 62 -202 64 -2 2 -1 17 2 34 l6 30 186 -54 c103 -30 240 -75 305 -99 128 -49 148 -50 172 -4 41 80 7 111 -200 178 -261 86 -429 131 -437 118 -4 -6 -6 16 -5 48 2 56 0 60 -23 67 -14 4 -18 7 -10 8 17 1 731 280 742 290 7 6 -72 127 -132 201 -102 127 -348 354 -460 425 -19 12 -41 30 -49 39 -7 9 -17 16 -22 16 -5 0 -28 12 -52 27 -104 68 -377 200 -427 208 -3 0 -30 10 -61 22 -86 33 -313 86 -414 98 -27 3 -81 9 -120 14 -107 13 -427 9 -544 -6z m735 -1695 l-23 -43 -409 -162 c-365 -144 -415 -162 -469 -162 -71 -1 -103 13 -65 27 169 65 844 330 910 358 77 31 82 30 56 -18z m452 -696 c-11 -13 -10 -14 7 -5 15 8 27 8 44 -1 l23 -13 -32 -6 c-46 -10 -110 -76 -110 -115 0 -29 14 -42 45 -42 7 0 23 16 35 35 44 71 127 64 163 -14 17 -36 28 -47 49 -49 50 -6 50 61 0 126 l-24 32 26 0 c35 0 60 -53 60 -130 0 -169 -172 -272 -306 -184 -66 43 -102 156 -74 233 5 15 5 21 -2 17 -17 -10 -35 -104 -30 -159 2 -29 16 -77 30 -107 141 -304 597 -208 598 126 0 77 -11 119 -46 176 l-23 36 29 11 c27 9 32 7 50 -19 41 -58 53 -101 53 -201 0 -83 -4 -103 -26 -151 -77 -163 -248 -251 -424 -218 -87 16 -115 31 -185 98 -55 52 -82 96 -107 171 -14 42 -15 198 -1 206 6 3 10 14 10 23 0 25 58 112 78 118 9 3 31 11 47 18 38 17 61 10 43 -12z m-782 -572 c18 -12 55 -47 81 -78 78 -92 77 -90 63 -107 -20 -25 -32 -18 -89 50 -30 35 -67 73 -82 84 l-28 21 -20 -22 c-20 -21 -38 -68 -61 -155 -8 -33 -16 -43 -31 -43 -29 0 -32 19 -15 94 36 155 97 208 182 156z m440 -1054 c3 -8 2 -50 -3 -93 -8 -74 -9 -78 -33 -78 -24 0 -25 3 -28 70 -4 94 2 115 34 115 13 0 27 -6 30 -14z m-177 -149 c17 -31 9 -57 -18 -57 -12 0 -34 21 -60 57 -46 65 -49 77 -23 92 14 9 23 4 52 -28 19 -21 41 -50 49 -64z"/>
<path d="M4775 3564 c-22 -8 -49 -18 -60 -23 -11 -4 -31 -13 -45 -19 -14 -6 -92 -36 -174 -67 -81 -31 -157 -60 -167 -66 -10 -5 -28 -13 -39 -19 -11 -5 -27 -10 -35 -10 -39 0 -7 -18 73 -39 48 -14 166 -49 262 -79 96 -30 181 -55 189 -55 15 -2 18 8 26 98 3 33 8 69 10 80 2 11 7 54 10 95 4 41 8 85 10 98 4 25 -3 26 -60 6z"/>
</g>
<g id="layer105" fill="#465054" stroke="none">
<path d="M2621 4733 c-112 -15 -359 -62 -411 -78 -10 -3 -27 -8 -37 -10 -46 -9 -368 -116 -408 -135 -11 -5 -49 -21 -85 -36 -248 -101 -506 -266 -691 -444 -43 -41 -172 -204 -201 -255 -105 -180 -158 -339 -183 -545 -7 -53 -14 -60 99 93 75 99 84 108 140 131 34 13 435 169 891 346 457 177 946 367 1088 422 l257 100 38 -33 c20 -18 218 -192 440 -387 l402 -355 0 -48 c0 -36 -5 -51 -17 -57 -10 -5 -144 -55 -298 -110 -561 -202 -1447 -524 -1478 -537 l-31 -13 62 -31 c97 -49 163 -73 176 -63 6 5 47 23 91 40 44 16 220 85 390 152 171 67 357 140 415 162 58 22 119 46 135 53 120 54 147 65 155 65 6 0 18 4 28 9 60 29 312 130 452 181 47 17 94 34 105 39 11 5 184 73 385 152 201 78 368 145 372 148 7 6 -72 127 -132 201 -102 127 -348 354 -460 425 -19 12 -41 30 -49 39 -7 9 -17 16 -22 16 -5 0 -28 12 -52 27 -104 68 -377 200 -427 208 -3 0 -30 10 -61 22 -86 33 -313 86 -414 98 -27 3 -81 9 -120 14 -107 13 -427 9 -544 -6z"/>
<path d="M3024 4145 c-55 -79 -132 -187 -306 -430 -40 -55 -74 -102 -77 -105 -4 -3 -26 -32 -50 -65 -87 -118 -145 -170 -224 -200 -40 -16 -94 -38 -122 -50 -27 -12 -77 -32 -110 -44 -33 -13 -102 -41 -153 -62 -51 -22 -96 -39 -99 -39 -4 0 -59 -21 -122 -46 -223 -89 -257 -102 -328 -130 -40 -15 -73 -30 -73 -34 0 -3 16 -21 34 -40 l35 -33 36 31 c53 47 92 64 160 69 84 7 203 -25 327 -87 l101 -50 918 332 c506 183 919 338 919 344 0 6 -107 105 -237 220 -131 115 -313 275 -404 356 l-167 147 -58 -84z"/>
<path d="M2755 4116 c-159 -63 -1805 -703 -1908 -742 -11 -4 -147 -178 -304 -388 -157 -210 -290 -387 -296 -393 -5 -8 11 -5 39 7 27 11 458 181 959 378 501 198 970 384 1044 413 l134 54 74 95 c118 152 483 662 472 659 -2 0 -98 -38 -214 -83z"/>
<path d="M4710 3541 c-23 -13 -53 -25 -214 -86 -81 -31 -157 -60 -167 -66 -10 -5 -28 -13 -39 -19 -11 -5 -27 -10 -35 -10 -39 0 -7 -18 73 -39 48 -14 156 -45 240 -71 149 -47 152 -47 157 -26 6 25 35 284 35 309 0 18 -24 22 -50 8z"/>
<path d="M4195 3267 c-15 -63 -23 -123 -17 -128 4 -4 81 -28 172 -54 91 -26 225 -69 298 -96 81 -30 141 -48 153 -44 22 7 49 54 49 84 0 56 -68 88 -376 180 -302 89 -273 83 -279 58z"/>
<path d="M4141 2973 c-50 -208 -129 -387 -221 -500 l-50 -62 27 -15 c84 -43 290 -47 395 -7 31 12 79 42 106 67 55 49 76 54 93 23 10 -19 5 -27 -43 -74 -30 -29 -75 -60 -100 -69 l-46 -18 30 -47 c54 -88 58 -253 8 -349 -12 -23 -45 -67 -74 -96 -91 -94 -210 -130 -343 -106 -87 16 -115 31 -185 98 -55 52 -82 96 -107 171 -13 40 -15 183 -3 209 5 9 21 40 35 68 15 29 27 54 27 56 0 2 -24 4 -53 5 -140 3 -220 66 -272 213 -30 83 -46 249 -35 356 6 54 9 98 8 99 -2 1 -187 -71 -411 -159 -389 -154 -407 -162 -402 -184 9 -36 -51 -145 -122 -221 -117 -127 -220 -173 -388 -174 -55 -1 -112 2 -127 6 -25 7 -28 5 -28 -17 0 -44 48 -211 76 -265 8 -14 14 -30 14 -35 0 -18 158 -328 221 -432 86 -143 194 -305 259 -388 27 -36 50 -68 50 -71 0 -4 6 -12 13 -19 7 -8 29 -33 48 -56 53 -66 180 -210 224 -255 43 -43 193 -174 246 -214 82 -63 205 -132 272 -152 68 -21 84 -24 152 -24 85 0 126 9 142 31 13 18 1 54 -19 54 -6 0 15 17 48 38 290 188 638 911 933 1942 54 190 134 501 129 505 -10 10 -136 53 -292 101 -100 30 -188 57 -197 59 -12 4 -20 -15 -38 -92z m-1115 -1203 c18 -12 55 -47 81 -78 78 -92 77 -90 63 -107 -20 -25 -32 -18 -89 50 -30 35 -67 73 -82 84 l-28 21 -20 -22 c-20 -21 -38 -68 -61 -155 -8 -33 -16 -43 -31 -43 -29 0 -32 19 -15 94 36 155 97 208 182 156z m440 -1054 c3 -8 2 -50 -3 -93 -8 -74 -9 -78 -33 -78 -24 0 -25 3 -28 70 -4 94 2 115 34 115 13 0 27 -6 30 -14z m-177 -149 c17 -31 9 -57 -18 -57 -12 0 -34 21 -60 57 -46 65 -49 77 -23 92 14 9 23 4 52 -28 19 -21 41 -50 49 -64z"/>
<path d="M1165 2870 c-55 -22 -187 -74 -293 -116 -220 -87 -205 -67 -144 -194 55 -112 114 -196 205 -288 81 -82 132 -120 139 -103 3 8 480 201 497 201 4 0 16 6 26 14 18 13 16 17 -42 79 -78 83 -133 191 -140 274 -5 59 -7 61 -69 117 -34 31 -66 56 -71 56 -4 0 -53 -18 -108 -40z"/>
<path d="M4129 2293 l-66 -4 20 -57 c64 -191 -133 -362 -295 -256 -66 43 -102 156 -74 233 5 15 5 21 -2 17 -17 -10 -35 -104 -30 -159 2 -29 16 -77 30 -107 141 -304 597 -208 598 126 0 78 -11 119 -47 177 -17 27 -30 36 -46 35 -12 -1 -52 -3 -88 -5z"/>
<path d="M3924 2090 c-49 -20 -69 -83 -36 -113 28 -25 68 -21 103 11 68 61 18 137 -67 102z"/>
</g>
<g id="layer106" fill="#c83b42" stroke="none">
<path d="M4197 3276 c-3 -7 -8 -41 -12 -77 l-7 -64 169 -49 c92 -26 228 -70 301 -97 81 -30 141 -48 153 -44 22 7 49 54 49 84 0 56 -68 88 -376 180 -283 83 -272 81 -277 67z"/>
</g>
<g id="layer107" fill="#71858e" stroke="none">
<path d="M3054 4183 c-64 -88 -74 -102 -74 -107 0 -3 20 2 44 11 l44 16 75 -65 75 -66 -99 -38 -100 -37 -50 49 c-47 46 -49 47 -63 29 -13 -18 -12 -23 21 -57 41 -42 43 -39 -69 -78 -56 -19 -72 -31 -98 -67 l-31 -43 28 6 c24 4 36 -3 92 -59 l63 -65 -43 -16 c-24 -8 -69 -25 -99 -36 l-54 -20 -31 30 c-35 34 -47 37 -66 14 -11 -14 -10 -20 14 -40 30 -26 31 -25 -40 -48 -38 -13 -62 -29 -86 -58 l-34 -40 66 -61 c36 -34 67 -64 69 -68 1 -3 -37 -20 -85 -37 l-88 -31 -40 37 c-91 85 -91 85 -116 71 -23 -12 -23 -13 41 -70 72 -66 79 -54 -52 -99 l-66 -23 -64 56 c-58 51 -65 54 -86 43 -23 -12 -23 -13 32 -64 31 -28 56 -53 56 -55 0 -2 -34 -16 -76 -31 l-75 -27 -60 52 c-49 43 -63 50 -86 44 l-26 -6 44 -45 c30 -31 38 -44 26 -44 -9 0 -19 -11 -23 -25 -4 -17 -19 -29 -50 -41 l-43 -16 -60 51 c-53 46 -63 51 -82 41 -21 -12 -21 -12 12 -45 27 -25 53 -36 121 -53 50 -12 129 -42 187 -70 l100 -50 758 274 c417 152 830 301 918 333 88 32 160 63 160 69 0 8 -791 712 -800 712 -2 0 -16 -17 -31 -37z m290 -314 c39 -34 72 -65 73 -68 2 -3 -44 -23 -102 -43 l-106 -37 -70 67 -71 67 99 37 c54 20 100 37 102 37 1 1 35 -27 75 -60z m-254 -104 l64 -64 -30 -11 c-16 -7 -57 -22 -92 -35 l-63 -23 -71 67 -71 67 84 31 c46 18 91 32 99 32 9 1 44 -28 80 -64z m445 -67 c40 -35 74 -65 74 -68 1 -3 -46 -23 -104 -44 l-105 -38 -70 62 c-39 34 -70 65 -70 69 0 5 179 78 198 81 2 0 37 -28 77 -62z m-261 -105 c36 -34 62 -64 58 -67 -5 -3 -46 -18 -91 -35 l-84 -31 -68 61 c-38 34 -69 64 -69 68 0 8 161 71 176 68 6 -1 41 -30 78 -64z m-245 -87 c73 -73 76 -65 -51 -111 l-77 -27 -70 63 c-39 34 -68 65 -65 68 7 7 175 69 189 70 6 1 39 -28 74 -63z m-201 -144 c8 -7 13 -14 11 -16 -2 -2 -41 -15 -86 -31 l-81 -28 -66 59 c-36 32 -66 62 -66 66 0 3 37 20 83 36 l82 30 54 -51 c30 -29 61 -58 69 -65z"/>
<path d="M1511 3461 c-10 -10 -22 -16 -28 -14 -6 2 -20 -7 -30 -21 -22 -28 -25 -103 -4 -98 7 1 10 -2 6 -8 -18 -29 107 -37 130 -8 5 7 17 13 25 13 8 0 15 7 15 15 0 8 6 15 13 15 33 0 42 61 14 96 -25 30 -115 36 -141 10z"/>
<path d="M4141 2973 c-50 -208 -129 -387 -221 -500 l-50 -62 27 -15 c84 -43 290 -47 395 -7 31 12 79 42 106 67 55 48 76 54 92 24 9 -17 4 -27 -31 -65 -23 -24 -65 -56 -94 -71 l-53 -25 31 -67 c28 -60 31 -77 32 -162 0 -82 -4 -103 -26 -150 -38 -82 -116 -161 -191 -196 -56 -26 -74 -29 -163 -29 -89 0 -106 3 -156 28 -71 34 -151 113 -186 180 -22 43 -27 69 -31 152 -4 97 -3 102 29 170 18 39 34 72 36 75 2 3 -21 6 -50 7 -140 3 -219 65 -272 213 -30 83 -46 249 -35 356 6 54 9 98 8 99 -2 1 -187 -71 -411 -159 -389 -154 -407 -162 -402 -184 9 -36 -51 -145 -122 -221 -117 -127 -220 -173 -388 -174 -55 -1 -112 2 -127 6 -25 7 -28 5 -28 -17 0 -44 48 -211 76 -265 8 -14 14 -30 14 -35 0 -18 158 -328 221 -432 86 -143 194 -305 259 -388 27 -36 50 -68 50 -71 0 -4 6 -12 13 -19 7 -8 29 -33 48 -56 53 -66 180 -210 224 -255 43 -43 193 -174 246 -214 82 -63 205 -132 272 -152 68 -21 84 -24 152 -24 85 0 126 9 142 31 13 18 1 54 -19 54 -6 0 15 17 48 38 290 188 638 911 933 1942 54 190 134 501 129 505 -10 10 -136 53 -292 101 -100 30 -188 57 -197 59 -12 4 -20 -15 -38 -92z m-1115 -1203 c18 -12 55 -47 81 -78 78 -92 77 -90 63 -107 -20 -25 -32 -18 -89 50 -30 35 -67 73 -82 84 l-28 21 -20 -22 c-20 -21 -38 -68 -61 -155 -8 -33 -16 -43 -31 -43 -29 0 -32 19 -15 94 36 155 97 208 182 156z m442 -1117 c3 -83 -9 -116 -41 -111 -20 3 -22 10 -25 73 -4 97 2 117 36 113 26 -3 27 -5 30 -75z m-246 5 c29 -25 80 -106 76 -124 -2 -11 -13 -20 -25 -22 -16 -2 -31 11 -62 54 -44 61 -48 73 -29 92 15 15 20 15 40 0z"/>
<path d="M1423 2972 c-35 -15 -63 -30 -63 -33 0 -3 17 -20 39 -37 l38 -31 48 49 c31 32 46 54 42 64 -9 22 -31 19 -104 -12z"/>
<path d="M1165 2870 c-55 -22 -187 -74 -293 -116 -220 -87 -205 -67 -144 -194 55 -112 114 -196 205 -288 81 -82 132 -120 139 -103 2 5 113 52 248 105 135 53 256 101 269 107 27 11 31 3 -54 99 -63 72 -115 182 -122 258 -5 58 -7 61 -69 116 -34 31 -66 56 -71 56 -4 0 -53 -18 -108 -40z"/>
<path d="M4127 2293 l-67 -4 14 -27 c54 -105 7 -251 -98 -300 -56 -27 -108 -28 -161 -3 -50 23 -68 43 -96 106 -16 37 -20 61 -16 99 l5 51 -15 -45 c-9 -27 -13 -67 -10 -101 22 -270 346 -390 537 -199 68 68 85 111 85 220 0 88 -2 99 -31 150 -34 60 -31 59 -147 53z"/>
<path d="M3925 2088 c-54 -29 -70 -86 -33 -112 32 -23 62 -20 97 10 67 56 12 144 -64 102z"/>
</g>
<g id="layer108" fill="#ac7171" stroke="none">
<path d="M2621 4733 c-112 -15 -359 -62 -411 -78 -10 -3 -27 -8 -37 -10 -46 -9 -368 -116 -408 -135 -11 -5 -49 -21 -85 -36 -248 -101 -506 -266 -691 -444 -43 -41 -172 -204 -201 -255 -105 -180 -158 -339 -183 -545 -7 -53 -14 -60 99 93 75 99 84 108 140 131 34 13 435 169 891 346 457 177 946 367 1088 422 l257 100 38 -33 c20 -18 218 -192 440 -387 l402 -355 0 -48 c0 -36 -5 -51 -17 -57 -10 -5 -144 -55 -298 -110 -812 -293 -1453 -526 -1475 -538 -24 -12 -22 -14 72 -58 54 -25 104 -46 113 -46 8 0 54 15 102 34 638 248 885 347 1143 456 210 88 384 157 495 195 119 40 796 304 807 314 7 6 -72 127 -132 201 -102 127 -348 354 -460 425 -19 12 -41 30 -49 39 -7 9 -17 16 -22 16 -5 0 -28 12 -52 27 -104 68 -377 200 -427 208 -3 0 -30 10 -61 22 -86 33 -313 86 -414 98 -27 3 -81 9 -120 14 -107 13 -427 9 -544 -6z"/>
<path d="M4140 2968 c-50 -206 -129 -383 -220 -495 l-50 -62 27 -15 c84 -43 290 -47 395 -7 31 12 79 42 106 67 55 48 76 54 92 24 9 -17 4 -27 -31 -65 -23 -24 -65 -56 -94 -71 l-53 -25 31 -67 c29 -61 32 -76 32 -162 -1 -82 -5 -103 -29 -156 -29 -65 -104 -145 -166 -180 -58 -33 -123 -46 -207 -43 -144 7 -261 88 -325 226 -26 56 -31 77 -31 147 -1 87 12 139 50 198 12 21 23 39 23 40 0 2 -30 3 -68 4 -83 1 -133 24 -190 90 -77 87 -118 257 -108 445 3 58 8 113 11 122 5 11 -67 -14 -232 -79 -131 -52 -315 -124 -410 -161 -163 -64 -172 -69 -166 -91 10 -40 -62 -166 -137 -242 -109 -110 -248 -166 -397 -158 l-63 3 6 -35 c35 -188 216 -560 427 -875 294 -437 617 -766 872 -885 203 -96 328 -70 489 102 263 278 560 949 815 1838 55 192 134 501 129 506 -9 8 -478 154 -497 154 -5 0 -19 -42 -31 -92z m-1114 -1198 c18 -12 55 -47 81 -78 78 -92 77 -90 63 -107 -20 -25 -32 -18 -89 50 -30 35 -67 73 -82 84 l-28 21 -20 -22 c-20 -21 -38 -68 -61 -155 -8 -33 -16 -43 -31 -43 -29 0 -32 19 -15 94 36 155 97 208 182 156z m432 -1042 c14 -14 16 -156 3 -176 -4 -8 -19 -12 -32 -10 -23 3 -24 7 -27 86 -3 83 6 112 32 112 7 0 17 -5 24 -12z m-193 -120 c51 -70 54 -83 24 -98 -25 -14 -45 2 -90 67 -32 46 -35 63 -17 81 22 22 37 13 83 -50z"/>
<path d="M1165 2870 c-55 -22 -187 -74 -293 -116 -220 -87 -205 -67 -144 -194 55 -112 114 -196 205 -288 81 -82 132 -120 139 -103 2 5 113 52 248 105 135 53 256 101 269 106 l23 11 -44 47 c-98 105 -157 221 -158 307 0 49 -2 51 -64 108 -36 31 -68 57 -73 57 -4 0 -53 -18 -108 -40z"/>
</g>
<g id="layer109" fill="#259ceb" stroke="none">
<path d="M4493 3452 c-134 -54 -243 -100 -243 -103 0 -3 46 -18 103 -34 56 -16 162 -47 235 -71 130 -41 132 -41 137 -20 6 25 35 284 35 309 0 9 -6 17 -12 16 -7 0 -122 -44 -255 -97z"/>
<path d="M3985 3256 c-188 -72 -547 -224 -562 -239 -7 -7 -17 -56 -23 -110 -16 -145 8 -326 55 -407 14 -24 14 -24 15 21 0 72 10 108 32 115 37 11 48 -12 42 -90 -5 -53 -2 -81 9 -108 16 -37 17 -38 68 -38 49 0 51 1 45 23 -12 37 -19 153 -12 182 5 21 12 26 34 23 27 -3 27 -4 32 -88 3 -47 10 -93 16 -103 9 -16 13 -15 55 12 108 72 203 246 268 491 29 110 76 358 69 365 -2 2 -66 -20 -143 -49z"/>
<path d="M1584 2889 c-32 -9 -44 -30 -44 -77 0 -35 45 -115 83 -149 18 -16 37 -35 41 -42 10 -16 -12 -41 -35 -41 -24 0 -100 75 -129 126 -20 37 -21 37 -15 9 9 -47 51 -126 94 -178 168 -202 429 -270 639 -166 71 35 163 121 199 186 l23 40 -46 7 c-65 8 -160 49 -316 133 -148 80 -283 143 -309 143 -14 0 -16 -6 -9 -34 8 -35 67 -126 81 -126 5 0 13 -9 19 -21 9 -16 8 -25 -6 -40 -9 -10 -20 -19 -23 -19 -12 0 -84 75 -107 111 -12 20 -28 61 -35 92 -13 54 -15 57 -44 56 -16 0 -44 -5 -61 -10z"/>
<path d="M4696 2713 c-100 -414 -320 -1089 -460 -1408 -19 -44 -33 -82 -30 -84 5 -5 -20 -36 191 235 363 464 515 673 603 829 28 49 34 70 34 115 -1 103 -89 239 -242 374 -34 31 -64 56 -65 56 -2 0 -16 -53 -31 -117z"/>
<path d="M3984 2255 c-10 -24 4 -63 26 -75 27 -14 40 -5 40 29 0 45 -53 81 -66 46z"/>
</g>
<g id="layer110" fill="#6fc5ff" stroke="none">
<path d="M1532 3458 c-35 -12 -92 -69 -92 -93 0 -49 80 -70 146 -39 110 52 62 169 -54 132z"/>
<path d="M3715 3143 c-42 -11 -281 -115 -292 -126 -7 -7 -17 -56 -23 -110 -16 -145 8 -326 55 -407 14 -24 14 -24 15 21 0 72 10 108 32 115 37 11 48 -12 42 -90 -5 -53 -2 -81 9 -108 16 -37 17 -38 68 -38 49 0 51 1 45 23 -12 37 -19 153 -12 182 5 21 12 26 34 23 27 -3 27 -4 32 -88 3 -47 10 -93 16 -103 9 -16 13 -15 55 12 108 72 203 245 269 495 37 139 39 134 -66 173 -69 25 -230 40 -279 26z"/>
<path d="M4140 2968 c-50 -206 -129 -383 -220 -495 l-50 -62 27 -15 c84 -43 290 -47 395 -7 31 12 79 42 106 67 55 48 76 54 92 24 9 -17 4 -27 -31 -65 -23 -24 -65 -56 -94 -71 l-53 -25 31 -67 c29 -61 32 -76 32 -162 -1 -82 -5 -103 -29 -156 -29 -65 -104 -145 -166 -180 -58 -33 -123 -46 -207 -43 -144 7 -261 88 -325 226 -26 56 -31 77 -31 147 -1 87 12 139 50 198 12 21 23 39 23 40 0 2 -30 3 -68 4 -155 1 -252 113 -288 334 -15 92 -17 194 -5 278 4 28 5 52 2 52 -3 0 -185 -71 -405 -158 l-398 -157 -3 -36 c-3 -53 -69 -163 -140 -234 -105 -106 -246 -161 -392 -153 l-63 3 6 -35 c35 -188 216 -560 427 -875 294 -437 617 -766 872 -885 203 -96 328 -70 489 102 263 278 560 949 815 1838 55 192 134 501 129 506 -9 8 -478 154 -497 154 -5 0 -19 -42 -31 -92z m-1124 -1189 c52 -32 165 -161 162 -184 -6 -44 -41 -27 -116 55 -40 44 -79 80 -86 80 -25 0 -45 -35 -68 -120 -22 -77 -26 -85 -48 -85 -35 0 -37 31 -6 129 29 92 69 141 120 145 5 1 24 -8 42 -20z m442 -1051 c14 -14 16 -156 3 -176 -4 -8 -19 -12 -32 -10 -23 3 -24 7 -27 86 -3 83 6 112 32 112 7 0 17 -5 24 -12z m-193 -120 c51 -70 54 -83 24 -98 -25 -14 -45 2 -90 67 -32 46 -35 63 -17 81 22 22 37 13 83 -50z"/>
<path d="M1583 2805 c-18 -8 -33 -19 -33 -25 0 -23 41 -88 73 -117 18 -16 37 -35 41 -42 10 -16 -12 -41 -36 -41 -22 0 -113 89 -123 120 -3 11 -11 20 -16 20 -14 0 24 -91 58 -141 159 -230 445 -320 670 -209 71 35 148 105 193 176 l30 48 -57 12 c-32 6 -118 37 -191 68 -168 71 -412 147 -412 129 0 -12 52 -83 61 -83 5 0 13 -9 19 -21 9 -16 8 -25 -6 -40 -9 -10 -20 -19 -24 -19 -15 0 -99 94 -119 135 -21 41 -25 45 -59 45 -20 -1 -52 -7 -69 -15z"/>
<path d="M4878 2349 c-90 -24 -162 -123 -368 -504 -62 -115 -130 -237 -150 -270 -37 -61 -161 -346 -154 -354 5 -5 -19 -35 191 235 346 442 497 649 582 793 l29 49 -22 21 c-29 27 -74 40 -108 30z"/>
</g>
<g id="layer111" fill="#fdfeff" stroke="none">
<path d="M1863 3006 c-19 -40 -12 -66 17 -66 28 0 57 64 39 86 -19 23 -38 16 -56 -20z"/>
<path d="M1465 2986 l-30 -13 27 -13 c33 -16 58 -7 58 20 0 23 -13 24 -55 6z"/>
<path d="M2921 2831 l-393 -156 -3 -36 c-3 -53 -69 -163 -140 -234 -105 -106 -246 -161 -392 -153 l-63 3 6 -35 c35 -188 216 -560 427 -875 401 -598 846 -974 1110 -939 34 5 56 14 70 31 51 58 95 215 118 418 19 162 16 616 -4 795 -32 276 -41 406 -38 537 l3 132 -39 7 c-92 17 -176 92 -214 193 -42 110 -59 288 -40 419 5 35 4 52 -3 51 -6 -1 -188 -72 -405 -158z m95 -1052 c52 -32 165 -161 162 -184 -6 -44 -41 -27 -116 55 -40 44 -79 80 -86 80 -25 0 -45 -35 -68 -120 -22 -77 -26 -85 -48 -85 -35 0 -37 31 -6 129 29 92 69 141 120 145 5 1 24 -8 42 -20z m442 -1051 c14 -14 16 -156 3 -176 -4 -8 -19 -12 -32 -10 -23 3 -24 7 -27 86 -3 83 6 112 32 112 7 0 17 -5 24 -12z m-193 -120 c51 -70 54 -83 24 -98 -25 -14 -45 2 -90 67 -32 46 -35 63 -17 81 22 22 37 13 83 -50z"/>
<path d="M1247 2753 c-4 -3 -7 -17 -7 -30 0 -21 4 -23 55 -23 59 0 79 16 55 45 -13 15 -90 21 -103 8z"/>
<path d="M3730 2466 c0 -8 5 -18 10 -21 13 -8 42 14 34 26 -9 15 -44 10 -44 -5z"/>
<path d="M3552 2446 c3 -18 11 -21 56 -24 51 -3 53 -2 50 20 -3 20 -9 23 -56 24 -48 1 -53 -1 -50 -20z"/>
<path d="M3901 2446 c-29 -35 137 -78 217 -57 50 14 54 28 10 35 -84 11 -175 26 -194 32 -12 3 -26 -1 -33 -10z"/>
<path d="M1780 2420 c0 -33 167 -77 245 -65 79 11 68 44 -15 45 -25 0 -76 7 -115 15 -81 17 -115 19 -115 5z"/>
<path d="M4148 2292 c-43 -2 -78 -4 -78 -6 0 -2 7 -20 15 -39 22 -53 19 -124 -9 -182 -27 -58 -57 -88 -108 -110 -126 -52 -247 25 -268 170 -7 47 -8 45 -9 -30 -1 -65 4 -90 24 -132 33 -71 102 -137 173 -163 74 -28 178 -24 243 9 132 68 202 214 169 352 -12 51 -49 123 -67 131 -4 1 -43 2 -85 0z"/>
<path d="M4890 2217 c-112 -108 -390 -491 -390 -537 0 -21 36 16 109 115 319 427 337 452 329 460 -2 2 -24 -15 -48 -38z"/>
<path d="M3935 2090 c-59 -24 -78 -102 -30 -120 50 -19 115 26 115 78 0 34 -48 57 -85 42z"/>
<path d="M3865 1009 c-46 -56 -226 -441 -212 -456 20 -19 170 189 234 322 58 123 44 211 -22 134z"/>
</g>


</svg>