<svg width="50" height="26" viewBox="0 0 50 26" fill="none" xmlns="http://www.w3.org/2000/svg">
<path d="M1.13021 23.5312C0.984375 22.9062 0.994792 22.125 1.16146 21.1875C1.32812 20.2292 1.53646 19.2396 1.78646 18.2188C2.05729 17.1771 2.32812 16.1667 2.59896 15.1875C2.86979 14.1875 3.03646 13.3229 3.09896 12.5938H0.630208C0.588542 12.5938 0.515625 12.5312 0.411458 12.4062C0.328125 12.2604 0.244792 12.0938 0.161458 11.9062C0.0989583 11.7188 0.046875 11.5312 0.00520833 11.3438C-0.015625 11.1354 0.0260417 10.9583 0.130208 10.8125C0.255208 10.6667 0.442708 10.5833 0.692708 10.5625C0.963542 10.5208 1.35938 10.5729 1.88021 10.7188C1.96354 10.7604 2.07812 10.7917 2.22396 10.8125C2.36979 10.8125 2.50521 10.8333 2.63021 10.875C2.77604 10.9167 2.93229 10.9479 3.09896 10.9688L3.34896 10.2188C3.36979 10.1979 3.38021 10.0104 3.38021 9.65625C3.40104 9.30208 3.42188 8.875 3.44271 8.375C3.46354 7.875 3.47396 7.35417 3.47396 6.8125C3.47396 6.27083 3.46354 5.79167 3.44271 5.375C3.44271 5.29167 3.41146 5.125 3.34896 4.875C3.28646 4.60417 3.22396 4.30208 3.16146 3.96875C3.11979 3.63542 3.07812 3.29167 3.03646 2.9375C3.01562 2.5625 3.03646 2.23958 3.09896 1.96875C3.16146 1.67708 3.27604 1.45833 3.44271 1.3125C3.60938 1.14583 3.85938 1.10417 4.19271 1.1875C4.29688 1.22917 4.40104 1.35417 4.50521 1.5625C4.60938 1.77083 4.66146 1.89583 4.66146 1.9375C4.61979 2.79167 4.60938 3.58333 4.63021 4.3125C4.67188 5.02083 4.70312 5.72917 4.72396 6.4375C4.76562 7.14583 4.79688 7.86458 4.81771 8.59375C4.83854 9.32292 4.83854 10.1146 4.81771 10.9688C5.58854 11.1562 6.52604 11.3021 7.63021 11.4062C8.75521 11.5104 9.91146 11.5417 11.099 11.5C12.2865 11.4583 13.4323 11.3229 14.5365 11.0938C15.6615 10.8438 16.599 10.4792 17.349 10C17.6198 9.83333 17.849 9.52083 18.0365 9.0625C18.224 8.58333 18.3802 8.04167 18.5052 7.4375C18.651 6.83333 18.776 6.1875 18.8802 5.5C18.9844 4.79167 19.0885 4.125 19.1927 3.5C19.2969 2.85417 19.401 2.28125 19.5052 1.78125C19.6302 1.26042 19.776 0.885417 19.9427 0.65625C20.1302 0.427083 20.3385 0.364583 20.5677 0.46875C20.7969 0.552083 21.0781 0.885417 21.4115 1.46875V2.1875C21.3073 3.66667 21.1615 5.08333 20.974 6.4375C20.7865 7.77083 20.5885 9.09375 20.3802 10.4062C20.1927 11.7188 20.0052 13.0417 19.8177 14.375C19.6302 15.7083 19.474 17.1146 19.349 18.5938C19.3073 19.0938 19.2969 19.5208 19.3177 19.875C19.3594 20.2292 19.3906 20.5729 19.4115 20.9062C19.4323 21.2396 19.4219 21.5938 19.3802 21.9688C19.3594 22.3229 19.2656 22.7604 19.099 23.2812C18.8281 23.4688 18.5573 23.5521 18.2865 23.5312C18.0365 23.4896 17.8177 23.3229 17.6302 23.0312C17.5677 22.0729 17.5885 21.1146 17.6927 20.1562C17.7969 19.1771 17.9115 18.2083 18.0365 17.25C18.1615 16.2708 18.2656 15.3021 18.349 14.3438C18.4323 13.3646 18.4323 12.4062 18.349 11.4688C16.1406 12.1979 13.8698 12.6458 11.5365 12.8125C9.20312 12.9792 6.88021 13.0208 4.56771 12.9375C4.54688 13.1042 4.49479 13.4167 4.41146 13.875C4.34896 14.3125 4.27604 14.7812 4.19271 15.2812C4.10938 15.7604 4.02604 16.2292 3.94271 16.6875C3.88021 17.125 3.83854 17.4271 3.81771 17.5938C3.65104 18.6562 3.49479 19.7708 3.34896 20.9375C3.22396 22.0833 3.06771 23.1875 2.88021 24.25C2.83854 24.5 2.73438 24.6875 2.56771 24.8125C2.40104 24.9375 2.17188 24.9167 1.88021 24.75C1.83854 24.7292 1.77604 24.6667 1.69271 24.5625C1.60938 24.4375 1.52604 24.3125 1.44271 24.1875C1.35938 24.0417 1.28646 23.9167 1.22396 23.8125C1.16146 23.6875 1.13021 23.5938 1.13021 23.5312Z" fill="#2E2A4D"/>
<path d="M41.0052 24.75C39.9427 24.2917 38.9948 23.6354 38.1615 22.7812C37.349 21.9062 36.6198 20.9479 35.974 19.9062C35.349 18.8646 34.7969 17.7812 34.3177 16.6562C33.8594 15.5104 33.4531 14.4271 33.099 13.4062L32.8802 13.1875C32.7969 13.2292 32.6406 13.4792 32.4115 13.9375C32.2031 14.375 31.9427 14.9271 31.6302 15.5938C31.3177 16.2604 30.9531 17.0104 30.5365 17.8438C30.1406 18.6562 29.7135 19.4583 29.2552 20.25C28.8177 21.0208 28.3594 21.75 27.8802 22.4375C27.401 23.125 26.9219 23.6667 26.4427 24.0625C25.9635 24.4583 25.4948 24.6771 25.0365 24.7188C24.5781 24.7396 24.151 24.5 23.7552 24C23.7135 23.9583 23.6615 23.875 23.599 23.75C23.5365 23.625 23.5052 23.5521 23.5052 23.5312L22.5677 10.4688C22.4635 10.1771 22.3698 9.85417 22.2865 9.5C22.224 9.125 22.3177 8.80208 22.5677 8.53125C23.0052 8.30208 23.3594 8.26042 23.6302 8.40625C23.9219 8.55208 24.1406 8.83333 24.2865 9.25C24.4115 9.64583 24.474 10.1562 24.474 10.7812C24.474 11.4062 24.4531 12.0521 24.4115 12.7188C24.3906 13.3646 24.349 14 24.2865 14.625C24.2448 15.2292 24.2448 15.7292 24.2865 16.125C24.3073 16.3542 24.3385 16.7396 24.3802 17.2812C24.4219 17.8021 24.4635 18.3646 24.5052 18.9688C24.5677 19.5729 24.6198 20.1458 24.6615 20.6875C24.7031 21.2292 24.7344 21.6042 24.7552 21.8125C24.7552 21.875 24.7865 22 24.849 22.1875C24.9115 22.375 24.9635 22.4896 25.0052 22.5312C25.026 22.5729 25.0677 22.5938 25.1302 22.5938C25.2135 22.5938 25.2552 22.5729 25.2552 22.5312C26.1302 21.7812 26.8802 20.9375 27.5052 20C28.151 19.0417 28.724 18.0417 29.224 17C29.7448 15.9583 30.2344 14.9062 30.6927 13.8438C31.151 12.7604 31.6406 11.7188 32.1615 10.7188C32.3906 10.3438 32.6719 10.2083 33.0052 10.3125C33.3594 10.3958 33.651 10.6146 33.8802 10.9688C34.3594 11.7812 34.7135 12.6146 34.9427 13.4688C35.1927 14.3229 35.4427 15.1875 35.6927 16.0625C35.9427 16.9167 36.2552 17.7708 36.6302 18.625C37.0052 19.4792 37.5573 20.2917 38.2865 21.0625C39.3906 22.25 40.401 22.9792 41.3177 23.25C42.2344 23.5 43.0573 23.4375 43.7865 23.0625C44.5156 22.6875 45.151 22.0521 45.6927 21.1562C46.2344 20.2604 46.6719 19.25 47.0052 18.125C47.3594 16.9792 47.599 15.7917 47.724 14.5625C47.849 13.3125 47.8698 12.1562 47.7865 11.0938C47.7031 10.0104 47.5052 9.08333 47.1927 8.3125C46.8802 7.52083 46.4531 7.01042 45.9115 6.78125C45.8698 6.73958 45.7969 6.71875 45.6927 6.71875C45.6094 6.71875 45.5677 6.73958 45.5677 6.78125V8C45.5677 8.04167 45.5052 8.05208 45.3802 8.03125C45.276 7.98958 45.151 7.9375 45.0052 7.875C44.8802 7.8125 44.7552 7.72917 44.6302 7.625C44.526 7.52083 44.4635 7.40625 44.4427 7.28125V4.8125C45.3385 4.58333 46.1094 4.76042 46.7552 5.34375C47.401 5.90625 47.9219 6.71875 48.3177 7.78125C48.7135 8.82292 48.974 10.0417 49.099 11.4375C49.224 12.8333 49.2135 14.25 49.0677 15.6875C48.9427 17.1042 48.6719 18.4792 48.2552 19.8125C47.8594 21.125 47.3281 22.2396 46.6615 23.1562C45.9948 24.0521 45.1823 24.6667 44.224 25C43.2865 25.3542 42.2135 25.2708 41.0052 24.75Z" fill="#2E2A4D"/>
</svg>
